Coordinates
version=1
nRows=12
nColumns=38
inDegrees=yes

Units are S.I. units (second, meters, Newtons, ...)
Angles are in degrees.

endheader
time	pelvis_tilt	pelvis_list	pelvis_rotation	pelvis_tx	pelvis_ty	pelvis_tz	hip_flexion_r	hip_adduction_r	hip_rotation_r	knee_angle_r	ankle_angle_r	subtalar_angle_r	mtp_angle_r	hip_flexion_l	hip_adduction_l	hip_rotation_l	knee_angle_l	ankle_angle_l	subtalar_angle_l	mtp_angle_l	lumbar_extension	lumbar_bending	lumbar_rotation	arm_flex_r	arm_add_r	arm_rot_r	elbow_flex_r	pro_sup_r	wrist_flex_r	wrist_dev_r	arm_flex_l	arm_add_l	arm_rot_l	elbow_flex_l	pro_sup_l	wrist_flex_l	wrist_dev_l
      2.15000000	     -1.71107493	     -4.52504528	      2.69887299	      1.02293884	      0.94014806	     -0.28437338	     14.96965366	      9.02903738	     -4.66202358	    -22.67356522	      9.23745015	    -10.99714351	      0.00000000	     13.77867593	     -7.43950587	     -2.62875179	    -65.11264677	    -10.26393288	     -9.40182055	      0.00000000	     -6.94889299	      4.99447570	     -3.01163439	     -1.56611113	    -11.31175051	     49.50092852	     26.64847035	     44.61249781	      0.00000000	      0.00000000	      3.59101819	    -10.78727614	     18.28714947	     62.56665151	     44.61249781	      0.00000000	      0.00000000
      2.16000000	     -1.83286813	     -4.16077226	      2.48412888	      1.03508580	      0.94160889	     -0.28340424	     13.85706892	      8.81208037	     -4.41210441	    -21.93946113	      9.67121530	    -10.87134337	      0.00000000	     15.54173436	     -6.77776853	     -2.35347694	    -65.47641081	     -8.91190694	     -9.15733594	      0.00000000	     -6.88959405	      4.51219865	     -2.64224185	     -0.04023095	    -11.23814463	     49.53356691	     27.00569848	     44.61546915	      0.00000000	      0.00000000	      2.72145834	    -10.66112801	     18.63847709	     62.03913150	     44.61546915	      0.00000000	      0.00000000
      2.17000000	     -1.97251763	     -3.91489635	      2.27804747	      1.04698873	      0.94283925	     -0.28225904	     12.70211765	      8.73106491	     -3.92223645	    -21.10474616	     10.07491147	    -10.65793401	      0.00000000	     17.26093569	     -6.29553838	     -2.23091251	    -65.55878831	     -7.32521760	     -9.15660019	      0.00000000	     -6.82443626	      4.14180010	     -2.28537644	      1.51377776	    -11.19338749	     49.63358370	     27.49875692	     44.61860155	      0.00000000	      0.00000000	      1.84489075	    -10.51910301	     18.93307188	     61.22345677	     44.61860155	      0.00000000	      0.00000000
      2.18000000	     -2.04735325	     -3.61041482	      1.99603108	      1.05900822	      0.94403209	     -0.28118813	     11.49734546	      8.64887095	     -3.18446737	    -20.25030989	     10.17697728	    -11.10753855	      0.00000000	     18.76132590	     -5.83157127	     -2.36124795	    -65.26106820	     -5.66417297	     -9.19283492	      0.00000000	     -6.80316191	      3.72694138	     -1.75902782	      3.01147016	    -11.81503675	     51.37264473	     29.30393087	     44.64323234	      0.00000000	      0.00000000	      2.14383043	    -10.17496838	     20.42786607	     57.15737438	     44.64323234	      0.00000000	      0.00000000
      2.19000000	     -2.11158507	     -3.21827436	      1.66706148	      1.07112111	      0.94492789	     -0.28020486	     10.35424413	      8.39155830	     -2.71464542	    -19.61020452	     10.71616992	    -10.90748555	      0.00000000	     20.12244585	     -5.26861805	     -2.60087222	    -64.58035270	     -4.07303848	     -9.37588858	      0.00000000	     -6.77435344	      3.22804712	     -1.33492789	      4.56634366	    -11.75745856	     51.35806352	     29.68553314	     44.64609096	      0.00000000	      0.00000000	      1.17498160	    -10.11829353	     20.78389173	     56.51503450	     44.64609096	      0.00000000	      0.00000000
      2.20000000	     -2.08970505	     -2.83762517	      1.36122828	      1.08321019	      0.94574111	     -0.27922526	      9.23754934	      8.12748993	     -2.39504445	    -19.13219017	     11.13017669	    -10.84282772	      0.00000000	     21.22238579	     -4.76508413	     -2.94498952	    -63.52205347	     -2.27174530	     -9.56269116	      0.00000000	     -6.85558610	      2.72790037	     -0.99319359	      6.18085391	    -11.77640929	     51.50320619	     30.37895081	     44.65043532	      0.00000000	      0.00000000	      0.34244027	    -10.09162751	     21.18240364	     55.23083380	     44.65043532	      0.00000000	      0.00000000
      2.21000000	     -2.21244142	     -2.48773733	      1.04215293	      1.09495527	      0.94622299	     -0.27836536	      8.23261094	      7.90391727	     -1.83782516	    -18.52392898	     11.31160010	    -11.06294771	      0.00000000	     22.58860271	     -4.28695198	     -3.21426772	    -62.30630595	     -1.51904929	     -9.90946628	      0.00000000	     -6.77941968	      2.30588352	     -0.39520097	      7.53098132	    -12.61361207	     52.92597598	     32.66526631	     44.68135346	      0.00000000	      0.00000000	      1.06946763	     -9.75556246	     23.86221873	     49.98792408	     44.68135346	      0.00000000	      0.00000000
      2.22000000	     -2.35666033	     -2.17367314	      0.70225205	      1.10687587	      0.94627230	     -0.27736699	      7.29007372	      7.67575327	     -1.58967423	    -17.98217565	     11.73449052	    -10.93420004	      0.00000000	     23.82075872	     -3.91108525	     -3.64602883	    -60.77563035	     -0.07685361	    -10.30232466	      0.00000000	     -6.67396238	      1.86773044	      0.12141410	      8.96829384	    -12.60883735	     52.75322089	     32.95663699	     44.68257127	      0.00000000	      0.00000000	      0.16668277	     -9.75147973	     24.05877203	     49.54777001	     44.68257127	      0.00000000	      0.00000000
      2.23000000	     -2.29318673	     -1.74773347	      0.36520703	      1.11894025	      0.94645051	     -0.27652550	      6.07237706	      7.37640402	     -0.83675622	    -17.40023906	     12.22645137	    -11.22404283	      0.00000000	     24.68156933	     -3.35354748	     -3.91055490	    -58.82988226	      0.42476865	    -10.68438417	      0.00000000	     -6.78473157	      1.35606044	      0.35560345	     10.41602811	    -13.17088148	     53.03428513	     35.27058462	     44.70558347	      0.00000000	      0.00000000	      0.13080014	     -9.43415380	     25.65007102	     45.26497397	     44.70558347	      0.00000000	      0.00000000
      2.24000000	     -2.30988253	     -1.40461649	     -0.02109040	      1.13101674	      0.94619841	     -0.27557852	      5.00092135	      7.09598099	     -0.43030419	    -16.90738803	     12.72170027	    -11.09381887	      0.00000000	     25.44472275	     -2.93668925	     -4.38410191	    -56.53215754	      0.93309854	    -11.31646371	      0.00000000	     -6.80247850	      0.91112939	      0.69471807	     11.92035221	    -13.09837507	     52.77919164	     35.85674112	     44.70928761	      0.00000000	      0.00000000	     -0.92050441	     -9.50399263	     26.00982869	     44.42707586	     44.70928761	      0.00000000	      0.00000000
      2.25000000	     -2.36831696	     -1.13471681	     -0.36254578	      1.14303577	      0.94568166	     -0.27470569	      3.97403382	      6.91728879	      0.14558747	    -16.41408843	     13.05577688	    -11.36359435	      0.00000000	     26.36850428	     -2.72634695	     -5.12119482	    -54.15640630	      0.73195026	    -12.08511300	      0.00000000	     -6.78293592	      0.55785319	      1.13080148	     12.97278758	    -13.75789037	     52.27723711	     38.46986638	     44.72912310	      0.00000000	      0.00000000	     -1.00072180	     -9.06531422	     27.22126754	     40.68534046	     44.72912310	      0.00000000	      0.00000000
      2.26000000	     -2.32872464	     -0.87098278	     -0.70520285	      1.15523828	      0.94505530	     -0.27378920	      2.88312481	      6.70333937	      0.42411409	    -16.00107475	     13.58463015	    -11.31853556	      0.00000000	     26.88483402	     -2.45959363	     -5.62237360	    -51.33047130	      1.08696960	    -12.20045750	      0.00000000	     -6.88085855	      0.19666308	      1.44788772	     14.22544052	    -13.85978932	     51.55363565	     39.70213353	     44.73863513	      0.00000000	      0.00000000	     -1.80374192	     -9.05921452	     27.95732299	     39.17602672	     44.73863513	      0.00000000	      0.00000000
